<?xml version="1.0" encoding="utf-8"?>
<!-- Generator: Adobe Illustrator 11.0, SVG Export Plug-In  -->
<!DOCTYPE svg PUBLIC "-//W3C//DTD SVG 1.0//EN"    "http://www.w3.org/TR/2001/REC-SVG-20010904/DTD/svg10.dtd" [
	<!ENTITY ns_flows "http://ns.adobe.com/Flows/1.0/">
	<!ENTITY ns_svg "http://www.w3.org/2000/svg">
	<!ENTITY ns_xlink "http://www.w3.org/1999/xlink">
	<!ENTITY st0 "fill:#464646;">
	<!ENTITY st1 "fill:url(#XMLID_1_);">
	<!ENTITY st2 "fill:url(#XMLID_2_);">
	<!ENTITY st3 "fill:url(#XMLID_3_);">
	<!ENTITY st4 "fill:url(#XMLID_4_);">
	<!ENTITY st5 "fill:url(#XMLID_5_);">
	<!ENTITY st6 "opacity:0.75;">
	<!ENTITY st7 "opacity:0.6;">
	<!ENTITY st8 "fill:#FFFFFF;">
	<!ENTITY st9 "fill:none;">
	<!ENTITY st10 "fill:#6A6A6A;">
]>
<svg  xmlns="&ns_svg;" xmlns:xlink="&ns_xlink;" xmlns:a="http://ns.adobe.com/AdobeSVGViewerExtensions/3.0/"
	 width="44" height="44" viewBox="0 -0.00049 44 44" xml:space="preserve">
	<defs>
	</defs>
	<g>
		<rect id="_x34_4x44_1_" style="&st9;" width="44" height="43.99951"/> 
		
			<linearGradient id="XMLID_1_" gradientUnits="userSpaceOnUse" x1="-254.23682" y1="413.55127" x2="-243.03081" y2="373.37363" gradientTransform="matrix(1 0 0 -1 275 413.49902)">
			<stop  offset="0" style="stop-color:#5E5F5F"/>
			<stop  offset="0.0454" style="stop-color:#7B7C7C"/>
			<stop  offset="0.13559" style="stop-color:#BFBFC0"/>
			<stop  offset="0.16058" style="stop-color:#C8C8C9"/>
			<stop  offset="0.20213" style="stop-color:#E2E2E2"/>
			<stop  offset="0.24011" style="stop-color:#FFFFFF"/>
			<stop  offset="0.28249" style="stop-color:#FFFFFF"/>
			<stop  offset="0.34463" style="stop-color:#E9E9E9"/>
			<stop  offset="0.639" style="stop-color:#919191"/>
			<stop  offset="0.813" style="stop-color:#4A4A4A"/>
			<stop  offset="0.9373" style="stop-color:#1E1E1E"/>
			<stop  offset="1" style="stop-color:#0D0D0D"/>
			<a:midPointStop  offset="0" style="stop-color:#5E5F5F"/>
			<a:midPointStop  offset="0.53191" style="stop-color:#5E5F5F"/>
			<a:midPointStop  offset="0.13559" style="stop-color:#BFBFC0"/>
			<a:midPointStop  offset="0.5946" style="stop-color:#BFBFC0"/>
			<a:midPointStop  offset="0.24011" style="stop-color:#FFFFFF"/>
			<a:midPointStop  offset="0.5" style="stop-color:#FFFFFF"/>
			<a:midPointStop  offset="0.28249" style="stop-color:#FFFFFF"/>
			<a:midPointStop  offset="0.5" style="stop-color:#FFFFFF"/>
			<a:midPointStop  offset="0.34463" style="stop-color:#E9E9E9"/>
			<a:midPointStop  offset="0.5" style="stop-color:#E9E9E9"/>
			<a:midPointStop  offset="0.639" style="stop-color:#919191"/>
			<a:midPointStop  offset="0.5" style="stop-color:#919191"/>
			<a:midPointStop  offset="0.813" style="stop-color:#4A4A4A"/>
			<a:midPointStop  offset="0.5" style="stop-color:#4A4A4A"/>
			<a:midPointStop  offset="0.9373" style="stop-color:#1E1E1E"/>
			<a:midPointStop  offset="0.5" style="stop-color:#1E1E1E"/>
			<a:midPointStop  offset="1" style="stop-color:#0D0D0D"/>
		</linearGradient>
		<path style="&st1;" d="M36.92383,5.26221C30.43164,3.99072,9.646,2.61426,8.85352,2.61426
			c-0.79492,0-3.70898,0.61914-4.18652,1.08203C4.52441,3.83447,4.50928,3.83447,4.521,3.79932l0.021,0.02197
			C6.0376,3.64063,31.68945,5.6333,35.78027,6.854c0.88086,0.73877,0.97852,3.28027,1.05566,4.36279
			c0.2041,2.78223-0.20605,25.70459-0.38281,27.51514c-0.1709,1.74902-0.06934,2.18555-0.86816,3.38477
			c-0.27148,0.40137-0.49414,0.63379-0.95801,0.77832c0.01074-0.00488,0.16113-0.01465,0.16797-0.0166
			c0.94629-0.19141,4.46973-2.37891,4.78711-3.38965c0.70215-2.53906,1.25098-26.24707,0.92676-29.78955
			C40.5332,5.6333,37.9502,5.4624,36.92383,5.26221z"/>
		<path style="&st8;" d="M35.58301,42.1167c0.7998-1.19629,0.69922-1.63281,0.87012-3.38477
			c0.17676-1.80762,0.63867-24.15723,0.49316-26.74756c-0.14648-2.59131-0.16406-4.43457-1.10645-5.08154
			C34.20801,5.90625,6.39111,3.73486,4.54102,3.82129C2.69141,3.90771,2.4541,35.03369,3.56787,35.41455
			c0.74512,1.11523,28.79736,7.42969,30.72803,7.48242C34.91797,42.94873,35.29883,42.54639,35.58301,42.1167z"/>
		<g>
			<path style="&st0;" d="M35.38867,12.4917c-0.06738-2.55469,0.0332-3.5127-0.82324-4.15332
				C33.82813,7.58398,8.46094,5.00146,6.4375,5.26318C6.28711,5.28125,5.59863,5.59814,5.51514,5.63574
				c1.2124-0.51807,27.74268,2.24072,28.48193,2.99512c0.91699,0.66309,0.75488,1.5957,0.82324,4.15137
				c0.09766,4.25342-0.01563,22.89893-0.17188,24.5874c-0.125,3.0498-1.04199,3.67676-1.94727,3.78516
				c0.10449-0.00684,0.20605-0.01563,0.29004-0.03125c1.12598-0.25195,2.10645-1.10938,2.22266-4.04297
				C35.37305,35.39014,35.48633,16.74463,35.38867,12.4917z"/>
		</g>
		<linearGradient id="XMLID_2_" gradientUnits="userSpaceOnUse" x1="9.65381" y1="7.875" x2="35.431" y2="43.66636">
			<stop  offset="0" style="stop-color:#FFFFFF"/>
			<stop  offset="0.12323" style="stop-color:#F5F5F5"/>
			<stop  offset="0.32904" style="stop-color:#DCDCDC"/>
			<stop  offset="0.59205" style="stop-color:#B2B2B2"/>
			<stop  offset="0.89897" style="stop-color:#797979"/>
			<stop  offset="1" style="stop-color:#646464"/>
			<a:midPointStop  offset="0" style="stop-color:#FFFFFF"/>
			<a:midPointStop  offset="0.5946" style="stop-color:#FFFFFF"/>
			<a:midPointStop  offset="1" style="stop-color:#646464"/>
		</linearGradient>
		<path style="&st2;" d="M34.64648,37.41064c0.16699-1.6416,0.29785-20.63672,0.19531-24.77783
			c-0.07129-2.48877,0.09668-3.39746-0.86523-4.04297C33.2041,7.85498,6.9834,5.13428,5.71436,5.63867
			C4.44238,6.14307,4.32178,9.37842,4.30469,19.20752c-0.0083,4.91602-0.06104,8.4541-0.02246,10.89355
			c0.03857,2.43848,0.1665,3.77637,0.52051,4.29395c0.90088,1.25586,24.94922,6.75977,27.26953,6.71484
			c0.18164,0.00488,0.46582,0.00391,0.71582-0.01172C33.73633,40.99268,34.5166,40.3833,34.64648,37.41064z"/>
		<path style="&st10;" d="M34.65332,36.63135L4.2876,30.38232c0.00732,0.3125,0.01465,0.60645,0.02441,0.88086l30.1665,6.20801
			L34.65332,36.63135z"/>
		<path style="&st10;" d="M4.33887,26.53564l30.50293,5.66602c0.00391-0.28223,0.00977-0.57129,0.01367-0.87109l-30.5127-5.66699
			C4.34131,25.9585,4.34033,26.25635,4.33887,26.53564z"/>
		<path style="&st10;" d="M4.29541,22.05518l30.5415,4.94727c0.00293-0.28906,0.00488-0.57813,0.00488-0.86914L4.29834,21.18604
			C4.29736,21.48438,4.29639,21.76904,4.29541,22.05518z"/>
		<path style="&st10;" d="M34.87598,19.83203L4.32471,15.16455c-0.00293,0.28369-0.00537,0.56592-0.00781,0.86719l30.55615,4.66895
			C34.87402,20.40869,34.875,20.11816,34.87598,19.83203z"/>
		<path style="&st10;" d="M34.86133,13.73486L4.51367,9.25732C4.49219,9.52588,4.47314,9.8125,4.45557,10.11621l30.41455,4.48975
			C34.86621,14.29297,34.86328,14.00244,34.86133,13.73486z"/>
		<path style="&st10;" d="M7.20703,5.58984v29.81592c0.15918,0.05078,0.32568,0.10156,0.49805,0.1543V5.60889
			C7.53125,5.60156,7.36084,5.59473,7.20703,5.58984z"/>
		<path style="&st10;" d="M11.73145,5.87451V36.6958c0.16553,0.04297,0.32959,0.08887,0.49854,0.13086V5.91553
			C12.06348,5.90137,11.89502,5.8877,11.73145,5.87451z"/>
		<path style="&st10;" d="M16.48438,6.29541v31.60352c0.16602,0.04004,0.33203,0.08008,0.49854,0.11914V6.34326
			C16.81641,6.32715,16.65039,6.31152,16.48438,6.29541z"/>
		<path style="&st10;" d="M21.29932,6.78271v32.24609c0.16748,0.03809,0.33252,0.07617,0.49902,0.11328V6.8374
			C21.63086,6.81885,21.4668,6.80127,21.29932,6.78271z"/>
		<path style="&st10;" d="M26.01758,7.31689h-0.08984v32.72656c0.1709,0.03516,0.33398,0.06738,0.49902,0.10254V7.3667
			C26.29199,7.34961,26.15625,7.33398,26.01758,7.31689z"/>
		<path style="&st10;" d="M30.4541,7.89258v33.02197c0.17578,0.0293,0.34473,0.05566,0.49609,0.07813V7.96582
			C30.78906,7.94141,30.62598,7.91797,30.4541,7.89258z"/>
		<polygon style="&st6;" points="4.44287,28.65674 11.83984,22.29639 23.79395,23.24365 35.05762,13.54443 35.05762,18.50635 
			24.83008,26.35693 12.38086,24.64111 4.51807,32.32373 "/>
		<linearGradient id="XMLID_3_" gradientUnits="userSpaceOnUse" x1="7.729" y1="27.25049" x2="30.62796" y2="19.08257">
			<stop  offset="0.00444" style="stop-color:#2BCD00"/>
			<stop  offset="0.11142" style="stop-color:#31CA00"/>
			<stop  offset="0.25605" style="stop-color:#42C200"/>
			<stop  offset="0.42218" style="stop-color:#5FB500"/>
			<stop  offset="0.60444" style="stop-color:#86A300"/>
			<stop  offset="0.79974" style="stop-color:#B98B00"/>
			<stop  offset="1" style="stop-color:#F56F00"/>
			<a:midPointStop  offset="0.00444" style="stop-color:#2BCD00"/>
			<a:midPointStop  offset="0.64286" style="stop-color:#2BCD00"/>
			<a:midPointStop  offset="1" style="stop-color:#F56F00"/>
		</linearGradient>
		<polygon style="&st3;" points="4.25732,28.1001 11.65479,21.73926 23.60742,22.68652 34.87109,12.98682 34.87109,17.94873 
			24.64355,25.79834 12.19531,24.08447 4.33252,31.76514 "/>
		<g>
			<g>
				<polygon points="12.77197,22.94287 11.81494,23.10889 11.81494,8.8501 12.77197,8.97754 "/>
				<path d="M19.4502,14.4375c0,0.42725-0.26758,0.77344-0.60107,0.7749l-6.4126,0.02637
					c-0.33252,0.00146-0.60205-0.41064-0.60205-0.92139V9.81982c0-0.51025,0.26953-0.88867,0.60205-0.84424l6.4126,0.84912
					c0.3335,0.04443,0.60107,0.42578,0.60107,0.85205V14.4375z"/>
				
					<radialGradient id="XMLID_4_" cx="14.23877" cy="10.93506" r="5.57665" fx="14.23877" fy="10.93506" gradientUnits="userSpaceOnUse">
					<stop  offset="0" style="stop-color:#FFFFFF"/>
					<stop  offset="0.08496" style="stop-color:#FFFFF5"/>
					<stop  offset="0.22686" style="stop-color:#FEFEDC"/>
					<stop  offset="0.40831" style="stop-color:#FDFDB2"/>
					<stop  offset="0.62222" style="stop-color:#FBFB78"/>
					<stop  offset="0.86064" style="stop-color:#F8F82E"/>
					<stop  offset="1" style="stop-color:#F7F700"/>
					<stop  offset="1" style="stop-color:#9D9A9A"/>
					<a:midPointStop  offset="0" style="stop-color:#FFFFFF"/>
					<a:midPointStop  offset="0.5946" style="stop-color:#FFFFFF"/>
					<a:midPointStop  offset="1" style="stop-color:#F7F700"/>
					<a:midPointStop  offset="0.5" style="stop-color:#F7F700"/>
					<a:midPointStop  offset="1" style="stop-color:#9D9A9A"/>
				</radialGradient>
				<path style="&st4;" d="M18.77637,13.98438c0,0.34668-0.21729,0.625-0.48438,0.62207l-5.16553-0.05713
					c-0.26807-0.00293-0.48486-0.32959-0.48486-0.72998v-3.53564c0-0.40088,0.2168-0.7002,0.48486-0.66797l5.16553,0.62158
					c0.26709,0.03223,0.48438,0.33984,0.48438,0.68701V13.98438z"/>
			</g>
		</g>
		<g>
			<g>
				<polygon points="25.17871,24.24854 24.22168,24.41455 24.22168,10.15576 25.17871,10.2832 "/>
				<path d="M31.85742,15.74316c0,0.42725-0.26758,0.77344-0.60156,0.7749l-6.41211,0.02637
					c-0.33301,0.00146-0.60254-0.41064-0.60254-0.92139v-4.49756c0-0.51025,0.26953-0.88867,0.60254-0.84424l6.41211,0.84912
					c0.33398,0.04443,0.60156,0.42578,0.60156,0.85205V15.74316z"/>
				
					<radialGradient id="XMLID_5_" cx="26.64551" cy="12.24072" r="5.57665" fx="26.64551" fy="12.24072" gradientUnits="userSpaceOnUse">
					<stop  offset="0" style="stop-color:#FFFFFF"/>
					<stop  offset="0.08496" style="stop-color:#FFFFF5"/>
					<stop  offset="0.22686" style="stop-color:#FEFEDC"/>
					<stop  offset="0.40831" style="stop-color:#FDFDB2"/>
					<stop  offset="0.62222" style="stop-color:#FBFB78"/>
					<stop  offset="0.86064" style="stop-color:#F8F82E"/>
					<stop  offset="1" style="stop-color:#F7F700"/>
					<stop  offset="1" style="stop-color:#9D9A9A"/>
					<a:midPointStop  offset="0" style="stop-color:#FFFFFF"/>
					<a:midPointStop  offset="0.5946" style="stop-color:#FFFFFF"/>
					<a:midPointStop  offset="1" style="stop-color:#F7F700"/>
					<a:midPointStop  offset="0.5" style="stop-color:#F7F700"/>
					<a:midPointStop  offset="1" style="stop-color:#9D9A9A"/>
				</radialGradient>
				<path style="&st5;" d="M31.18359,15.29004c0,0.34668-0.21777,0.625-0.48438,0.62207l-5.16602-0.05713
					c-0.26758-0.00293-0.48438-0.32959-0.48438-0.72998v-3.53564c0-0.40088,0.2168-0.7002,0.48438-0.66797l5.16602,0.62158
					c0.2666,0.03223,0.48438,0.33984,0.48438,0.68701V15.29004z"/>
			</g>
		</g>
	</g>
</svg>
